<?xml version="1.0" encoding="UTF-8" standalone="no"?>
<svg width="489px" height="74px" viewBox="0 0 489 74" version="1.1" xmlns="http://www.w3.org/2000/svg" xmlns:xlink="http://www.w3.org/1999/xlink" xmlns:sketch="http://www.bohemiancoding.com/sketch/ns">
    <title>type</title>
    <description>Created with Sketch (http://www.bohemiancoding.com/sketch)</description>
    <defs>
        <path d="M1.05791843,24.623595 L1.05791843,48.8335007 L9.39817303,57.0579184 L33.5501603,57.0579184 L41.8324964,48.8335007 L41.8324964,24.623595 L33.5501603,16.3991773 L9.39817303,16.3991773 L1.05791843,24.623595 Z M17.5646723,24.7973503 L10.0352758,17.2679538 L33.2026497,17.2679538 L40.7899646,24.7973503 L17.5646723,24.7973503 Z M2.10045026,48.4280717 L9.6877652,40.7828383 L32.9130575,40.7828383 L25.3257426,48.4280717 L2.10045026,48.4280717 Z M17.390917,25.2606978 L17.390917,40.5511646 L9.80360207,40.5511646 L9.80360207,32.8480127 L17.390917,25.2606978 Z M25.2678241,32.9638496 L25.2678241,40.5511646 L17.6225907,40.5511646 L17.6225907,32.9638496 L25.2678241,32.9638496 Z M33.0868128,32.9638496 L33.0868128,40.5511646 L25.5574163,40.5511646 L25.5574163,32.9638496 L33.0868128,32.9638496 Z M40.7899646,25.0869425 L33.2026497,32.7321759 L17.6225907,32.7321759 L17.6225907,25.0869425 L40.7899646,25.0869425 Z M9.62984676,32.616339 L1.98461339,24.9131872 L9.62984676,17.2679538 L17.3329986,24.9131872 L9.62984676,32.616339 Z M9.5140099,40.6670014 L1.92669495,48.2543164 L1.92669495,25.2606978 L9.5140099,32.8480127 L9.5140099,40.6670014 Z M25.3257426,48.6597454 L32.9130575,56.2470603 L9.6877652,56.2470603 L2.10045026,48.6597454 L25.3257426,48.6597454 Z M33.2605681,40.8986752 L40.9637199,48.601827 L33.2605681,56.2470603 L25.5574163,48.601827 L33.2605681,40.8986752 Z M33.4343234,32.8480127 L41.0216384,25.2606978 L41.0216384,48.2543164 L33.4343234,40.6670014 L33.4343234,32.8480127 Z M62.238562,49.1810113 L62.238562,33.6588708 L68.8412635,33.6588708 L68.8412635,49.1810113 L76.6602522,57 L78.2240499,57 L86.0430386,49.1810113 L86.0430386,24.6815135 L77.7607024,16.3991773 L53.5507968,16.3991773 L53.3770415,16.3991773 L44.9788684,24.6815135 L44.9788684,49.1810113 L52.7978571,57 L54.4195733,57 L62.238562,49.1810113 Z M61.4277039,33.0796865 L61.4277039,48.8335007 L53.7824705,56.4787341 L53.7824705,33.0796865 L61.4277039,33.0796865 Z M61.6014592,25.1448609 L69.4204479,25.1448609 L69.4204479,32.8480127 L53.9562258,32.8480127 L61.6014592,25.1448609 Z M85.2321805,48.8335007 L77.5869471,56.4787341 L77.5869471,17.3837907 L85.2321805,25.1448609 L85.2321805,48.8335007 Z M69.6521216,25.1448609 L77.297355,17.3837907 L77.297355,56.4787341 L69.6521216,48.8335007 L69.6521216,25.1448609 Z M61.6014592,24.8552688 L53.9562258,17.2100354 L77.1815181,17.2100354 L69.4204479,24.8552688 L61.6014592,24.8552688 Z M53.6087152,32.7900943 L45.8476449,25.0290241 L53.6087152,17.2679538 L61.3697854,25.0290241 L53.6087152,32.7900943 Z M53.5507968,56.4787341 L45.7897265,48.8335007 L45.7897265,25.3765347 L53.5507968,33.0217681 L53.5507968,56.4787341 Z M97.7034205,73.4488354 L122.145,73.4488354 L130.485255,65.0506624 L130.485255,24.6815135 L122.145,16.2833404 L97.7034205,16.2833404 L89.247329,24.6815135 L89.247329,24.9131872 L89.247329,49.1810113 L96.9504808,56.8262447 L89.0156553,64.7610702 C91.911577,67.7149104 94.6337435,70.6108321 97.7034205,73.4488354 Z M121.797489,32.7900943 L98.2826048,32.7900943 L105.985757,25.0869425 L129.442723,25.0869425 L121.797489,32.7900943 Z M90.1161055,48.5439085 L90.1161055,25.2606978 L97.7613389,33.0217681 L97.7613389,40.8407567 L90.1161055,48.5439085 Z M105.754083,24.9131872 L97.9350942,32.7900943 L90.174024,24.9131872 L97.9350942,17.2679538 L105.754083,24.9131872 Z M105.985757,24.8552688 L98.2826048,17.152117 L121.797489,17.152117 L129.442723,24.8552688 L105.985757,24.8552688 Z M113.978501,48.7755823 L113.978501,33.0796865 L121.739571,33.0796865 L121.739571,72.4642221 L113.978501,64.7031518 L113.978501,56.8262447 L113.978501,48.9493376 L113.978501,48.7755823 Z M98.2826048,57 L113.688908,57 L113.688908,64.5873149 L105.927838,64.5873149 L98.2826048,57 Z M113.688908,48.7755823 L90.2319424,48.7755823 L97.9930127,41.014512 L113.688908,41.014512 L113.688908,48.7755823 Z M90.174024,64.7610702 L97.9350942,57.1158369 L105.754083,64.7610702 L97.9350942,72.5221405 L90.174024,64.7610702 Z M98.2826048,72.6379774 L105.927838,64.992744 L113.804745,64.992744 L121.507897,72.6379774 L98.2826048,72.6379774 Z M105.985757,40.7828383 L105.985757,33.0796865 L113.688908,33.0796865 L113.688908,40.7828383 L105.985757,40.7828383 Z M98.0509311,40.7828383 L98.0509311,33.0796865 L105.754083,33.0796865 L105.754083,40.7828383 L98.0509311,40.7828383 Z M113.688908,56.6524894 L97.9930127,56.6524894 L90.2319424,49.007256 L113.688908,49.007256 L113.688908,56.6524894 Z M129.616478,25.2606978 L129.616478,64.7031518 L122.029163,72.4642221 L122.029163,33.0217681 L129.616478,25.2606978 Z M133.573708,24.8552688 L141.450615,32.7321759 L133.805382,40.2615724 L133.805382,48.8335007 L142.145636,57 L166.239705,57 L174.57996,48.7755823 C174.57996,40.4932461 174.57996,32.5584206 174.522041,24.623595 L166.239705,16.3412589 L142.203555,16.3412589 L133.573708,24.8552688 Z M150.370054,24.6815135 L142.724821,17.152117 L165.950113,17.152117 L173.47951,24.6815135 L150.370054,24.6815135 Z M150.13838,24.8552688 L142.435229,32.5584206 L134.789995,24.8552688 L142.435229,17.2100354 L150.13838,24.8552688 Z M158.015287,32.8480127 L158.015287,40.4353277 L150.370054,40.4353277 L142.724821,32.8480127 L158.015287,32.8480127 Z M150.427973,48.3122348 L150.427973,40.7249199 L158.015287,40.7249199 L158.015287,48.3122348 L150.427973,48.3122348 Z M142.261473,48.4280717 L142.261473,55.9574682 L134.732077,48.3701532 L134.732077,40.8986752 L142.261473,48.4280717 Z M150.13838,40.609083 L142.435229,48.2543164 L134.789995,40.609083 L142.435229,32.8480127 L150.13838,40.609083 Z M150.13838,48.3701532 L142.551065,55.9574682 L142.551065,48.4280717 L150.13838,40.8986752 L150.13838,48.3701532 Z M158.073206,48.5439085 L165.718439,56.2470603 L142.724821,56.2470603 L150.370054,48.5439085 L158.073206,48.5439085 Z M158.30488,32.8480127 L165.892195,32.8480127 L165.892195,56.0153866 L158.30488,48.3701532 L158.30488,32.8480127 Z M173.47951,25.0290241 L165.950113,32.5584206 L142.724821,32.5584206 L150.370054,25.0290241 L173.47951,25.0290241 Z M166.06595,32.7900943 L173.711183,25.2606978 L173.711183,48.3701532 L166.06595,56.0153866 L166.06595,32.7900943 Z M206.975141,16.5729326 L194.81227,28.3882933 L194.81227,9.15937297 L186.29826,0.645363075 L177.78425,9.15937297 L177.78425,57 L189.831285,57 L198.403213,48.601827 L206.975141,57 L219.022176,57 L219.022176,44.9529656 L210.681921,36.6706294 L219.022176,28.5620486 L219.022176,16.5729326 L206.975141,16.5729326 Z M186.29826,16.9783616 L178.653027,9.33312827 L186.29826,1.74581333 L193.943494,9.33312827 L186.29826,16.9783616 Z M186.356179,37.2498138 L186.356179,17.2679538 L193.943494,9.68063888 L193.943494,29.8941726 L186.356179,37.2498138 Z M186.124505,37.539406 L178.595108,44.8950472 L178.595108,9.68063888 L186.124505,17.2679538 L186.124505,37.539406 Z M217.979644,17.3258723 L178.595108,55.9574682 L178.595108,45.2425578 L207.264733,17.3258723 L217.979644,17.3258723 Z M218.153399,17.4996276 L218.153399,28.1566195 L189.425856,56.1312235 L178.768864,56.1312235 L218.153399,17.4996276 Z M204.021301,42.2307992 L217.979644,56.1312235 L207.264733,56.1312235 L198.692805,47.6172136 L204.021301,42.2307992 Z M204.252975,42.0570439 L209.697308,36.8443847 L218.153399,45.2425578 L218.153399,55.9574682 L204.252975,42.0570439 Z M245.741351,24.2760844 L245.741351,39.7982249 L239.138649,39.7982249 L239.138649,24.2760844 L231.31966,16.4570957 L229.755863,16.4570957 L221.936874,24.2760844 L221.936874,48.7755823 L230.21921,57.0579184 L254.429116,57.0579184 L254.602871,57.0579184 L263.001044,48.7755823 L263.001044,24.2760844 L255.182055,16.4570957 L253.560339,16.4570957 L245.741351,24.2760844 Z M246.552209,40.3774093 L246.552209,24.623595 L254.197442,16.9783616 L254.197442,40.3774093 L246.552209,40.3774093 Z M246.378453,48.3122348 L238.559465,48.3122348 L238.559465,40.609083 L254.023687,40.609083 L246.378453,48.3122348 Z M222.747732,24.623595 L230.392965,16.9783616 L230.392965,56.073305 L222.747732,48.3122348 L222.747732,24.623595 Z M238.327791,48.3122348 L230.682558,56.073305 L230.682558,16.9783616 L238.327791,24.623595 L238.327791,48.3122348 Z M246.378453,48.601827 L254.023687,56.2470603 L230.798394,56.2470603 L238.559465,48.601827 L246.378453,48.601827 Z M254.371197,40.6670014 L262.132268,48.4280717 L254.371197,56.1891419 L246.610127,48.4280717 L254.371197,40.6670014 Z M254.429116,16.9783616 L262.190186,24.623595 L262.190186,48.0805611 L254.429116,40.4353277 L254.429116,16.9783616 Z M282.672947,24.8552688 L282.672947,49.5285219 L290.434017,57.2895922 L292.055733,57.2895922 L299.93264,49.5285219 L299.93264,33.7747077 L306.651178,33.7747077 L315.281025,25.1448609 L306.651178,16.5729326 L290.955283,16.5729326 L282.672947,24.8552688 Z M298.368842,24.9131872 L283.65756,24.9131872 L291.360712,17.3837907 L306.014076,17.3837907 L298.368842,24.9131872 Z M283.483805,25.4344531 L291.129038,33.1376049 L291.129038,56.7683263 L283.483805,49.1230929 L283.483805,25.4344531 Z M291.41863,33.1955234 L299.121782,33.1955234 L299.121782,49.1230929 L291.41863,56.7683263 L291.41863,33.1955234 Z M283.65756,25.2606978 L298.368842,25.2606978 L306.014076,32.9059312 L299.237619,32.9059312 L291.360712,32.9059312 L283.65756,25.2606978 Z M306.361586,17.4417091 L314.122657,25.1448609 L306.361586,32.8480127 L298.658434,25.1448609 L306.361586,17.4417091 Z M348.602902,73.5067539 L356.885238,65.1664993 L356.885238,25.0869425 L356.885238,24.9131872 L348.197473,16.2833404 L339.625544,24.9131872 L339.625544,25.0869425 L339.625544,40.3774093 L333.022843,40.3774093 L333.022843,24.9131872 L324.450914,16.2833404 L315.763149,24.9131872 L315.763149,25.0869425 L315.763149,49.007256 L315.763149,49.2389298 L323.408383,56.9420816 L315.531475,64.8189887 C318.369479,67.7149104 321.265401,70.5529137 324.103404,73.5067539 L348.602902,73.5067539 Z M348.139554,72.4642221 L340.378484,64.7031518 L340.378484,56.9420816 L340.378484,48.9493376 L340.378484,25.4344531 L348.139554,33.1376049 L348.139554,72.4642221 Z M356.07438,25.55029 L356.07438,64.7031518 L348.371228,72.4642221 C348.371228,59.3746558 348.31331,46.1692527 348.371228,33.1376049 C350.861721,30.5891938 353.583887,28.0407827 356.07438,25.55029 Z M348.197473,32.9059312 L340.494321,25.1448609 L348.197473,17.3837907 L356.07438,25.1448609 L348.197473,32.9059312 Z M324.566751,33.1376049 C327.057244,30.5891938 329.605655,28.0407827 332.154066,25.55029 L332.154066,40.8986752 L324.566751,40.8986752 L324.566751,33.1376049 Z M340.14681,48.8914191 L316.805681,48.8914191 L324.450914,41.1303489 L340.14681,41.1303489 L340.14681,48.8914191 Z M316.631926,25.4344531 L324.277159,33.1376049 L324.277159,40.9565936 L316.631926,48.601827 L316.631926,25.4344531 Z M324.450914,32.9059312 L316.631926,25.1448609 L324.450914,17.3837907 L332.154066,25.1448609 L324.450914,32.9059312 Z M340.14681,57 L340.14681,64.7031518 L332.38574,64.7031518 L324.740507,57 L340.14681,57 Z M324.450914,57.1158369 L332.154066,64.8189887 L324.450914,72.5221405 L316.631926,64.8189887 L324.450914,57.1158369 Z M332.38574,64.992744 L340.262647,64.992744 L347.849962,72.6379774 L324.740507,72.6379774 L332.38574,64.992744 Z M324.450914,56.7683263 L316.805681,49.1230929 L340.14681,49.1230929 L340.14681,56.7683263 L324.450914,56.7683263 Z M358.989078,24.623595 L358.989078,48.8335007 L367.329333,57.0579184 L391.48132,57.0579184 L399.763656,48.8335007 L399.763656,24.623595 L391.48132,16.3991773 L367.329333,16.3991773 L358.989078,24.623595 Z M375.495832,24.7973503 L367.966435,17.2679538 L391.133809,17.2679538 L398.721124,24.7973503 L375.495832,24.7973503 Z M360.03161,48.4280717 L367.618925,40.7828383 L390.844217,40.7828383 L383.256902,48.4280717 L360.03161,48.4280717 Z M375.322077,25.2606978 L375.322077,40.5511646 L367.734762,40.5511646 L367.734762,32.8480127 L375.322077,25.2606978 Z M383.198984,32.9638496 L383.198984,40.5511646 L375.55375,40.5511646 L375.55375,32.9638496 L383.198984,32.9638496 Z M391.017972,32.9638496 L391.017972,40.5511646 L383.488576,40.5511646 L383.488576,32.9638496 L391.017972,32.9638496 Z M398.721124,25.0869425 L391.133809,32.7321759 L375.55375,32.7321759 L375.55375,25.0869425 L398.721124,25.0869425 Z M367.561006,32.616339 L359.915773,24.9131872 L367.561006,17.2679538 L375.264158,24.9131872 L367.561006,32.616339 Z M367.445169,40.6670014 L359.857855,48.2543164 L359.857855,25.2606978 L367.445169,32.8480127 L367.445169,40.6670014 Z M383.256902,48.6597454 L390.844217,56.2470603 L367.618925,56.2470603 L360.03161,48.6597454 L383.256902,48.6597454 Z M391.191728,40.8986752 L398.894879,48.601827 L391.191728,56.2470603 L383.488576,48.601827 L391.191728,40.8986752 Z M391.365483,32.8480127 L398.952798,25.2606978 L398.952798,48.2543164 L391.365483,40.6670014 L391.365483,32.8480127 Z M420.22764,8.98561767 L411.597793,0.355770901 L402.967946,8.98561767 L402.967946,49.2389298 C405.632194,51.7873409 408.122687,54.5095073 410.786935,57.0579184 L412.408651,57.0579184 L420.22764,49.2389298 L420.22764,33.7747077 L426.772423,33.7747077 L426.772423,49.007256 L426.772423,49.1810113 L434.64933,57.0579184 L436.213128,57.0579184 L444.032117,49.2389298 L444.032117,24.7973503 L435.74978,16.4570957 L420.22764,16.4570957 L420.22764,9.2172914 L420.22764,8.98561767 Z M411.539875,17.2100354 L411.539875,56.4787341 L403.778805,48.8335007 L403.778805,9.56480201 L411.539875,17.2100354 Z M411.771549,56.4787341 L411.771549,17.2100354 L419.416782,9.56480201 L419.416782,48.8335007 L411.771549,56.4787341 Z M419.648456,24.9711056 L419.648456,17.3258723 L435.40227,17.3258723 L443.047503,24.9711056 L419.648456,24.9711056 Z M419.648456,32.9638496 L419.648456,25.2606978 L443.047503,25.2606978 L435.40227,32.9638496 L419.648456,32.9638496 Z M435.576025,56.4787341 L435.576025,33.0796865 L443.221259,25.4344531 L443.221259,48.8335007 L435.576025,56.4787341 Z M435.286433,33.1955234 L435.286433,56.4787341 L427.6412,48.8335007 L427.6412,33.1955234 L435.286433,33.1955234 Z M411.597793,1.51413959 L419.358863,9.2172914 L411.597793,16.9783616 L403.836723,9.2172914 L411.597793,1.51413959 Z M447.410162,24.623595 L447.410162,48.8335007 L455.750417,57.0579184 L479.902404,57.0579184 L488.18474,48.8335007 L488.18474,24.623595 L479.902404,16.3991773 L455.750417,16.3991773 L447.410162,24.623595 Z M463.916916,24.7973503 L456.38752,17.2679538 L479.554894,17.2679538 L487.142209,24.7973503 L463.916916,24.7973503 Z M448.452694,48.4280717 L456.040009,40.7828383 L479.265301,40.7828383 L471.677986,48.4280717 L448.452694,48.4280717 Z M463.743161,25.2606978 L463.743161,40.5511646 L456.155846,40.5511646 L456.155846,32.8480127 L463.743161,25.2606978 Z M471.620068,32.9638496 L471.620068,40.5511646 L463.974835,40.5511646 L463.974835,32.9638496 L471.620068,32.9638496 Z M479.439057,32.9638496 L479.439057,40.5511646 L471.90966,40.5511646 L471.90966,32.9638496 L479.439057,32.9638496 Z M487.142209,25.0869425 L479.554894,32.7321759 L463.974835,32.7321759 L463.974835,25.0869425 L487.142209,25.0869425 Z M455.982091,32.616339 L448.336857,24.9131872 L455.982091,17.2679538 L463.685242,24.9131872 L455.982091,32.616339 Z M455.866254,40.6670014 L448.278939,48.2543164 L448.278939,25.2606978 L455.866254,32.8480127 L455.866254,40.6670014 Z M471.677986,48.6597454 L479.265301,56.2470603 L456.040009,56.2470603 L448.452694,48.6597454 L471.677986,48.6597454 Z M479.612812,40.8986752 L487.315964,48.601827 L479.612812,56.2470603 L471.90966,48.601827 L479.612812,40.8986752 Z M479.786567,32.8480127 L487.373882,25.2606978 L487.373882,48.2543164 L479.786567,40.6670014 L479.786567,32.8480127 Z M479.786567,32.8480127" id="path-1"></path>
    </defs>
    <g id="Page-1" stroke="none" stroke-width="1" fill="none" fill-rule="evenodd" sketch:type="MSPage">
        <g id="Ongaku-Ryoho-copy">
            <use stroke="#222222" stroke-width="0.6" stroke-linecap="round" stroke-linejoin="bevel" fill="none" sketch:type="MSShapeGroup" xlink:href="#path-1"></use>
            <use stroke="none" fill="#222222" fill-rule="evenodd" xlink:href="#path-1"></use>
        </g>
    </g>
</svg>