<?xml version="1.0" encoding="utf-8"?>
<!-- Generator: Adobe Illustrator 16.0.0, SVG Export Plug-In . SVG Version: 6.00 Build 0)  -->
<!DOCTYPE svg PUBLIC "-//W3C//DTD SVG 1.1//EN" "http://www.w3.org/Graphics/SVG/1.1/DTD/svg11.dtd">
<svg version="1.1" xmlns="http://www.w3.org/2000/svg" xmlns:xlink="http://www.w3.org/1999/xlink" x="0px" y="0px" width="28px"
	 height="28px" viewBox="-3.5 28.5 28 28" enable-background="new -3.5 28.5 28 28" xml:space="preserve">
<g id="Layer_2" display="none">
	<rect x="-3.5" y="28.5" display="inline" fill="#00CCFF" width="28" height="28"/>
</g>
<g id="Layer_1" display="none">
	<path id="audio-7-icon" display="inline" fill="#D9F7FF" d="M17.572,35.218L7.121,37.393v7.908
		c-2.054-0.406-4.195,1.419-3.589,3.136c0.802,2.273,5.32,1.589,5.324-1.475c0.001-1.263,0-6.243,0-6.243l6.973-1.491v4.984
		c-2.056-0.405-4.186,1.418-3.58,3.137c0.802,2.271,5.321,1.589,5.324-1.478C17.574,44.814,17.572,35.218,17.572,35.218z"/>
</g>
<g id="Layer_1_copy">
	<path fill="#00CCFF" d="M-3.5,28.5v28h28v-28H-3.5z M17.572,45.871c-0.003,3.066-4.522,3.749-5.324,1.478
		c-0.606-1.719,1.524-3.542,3.58-3.137v-4.984l-6.973,1.491c0,0,0.001,4.98,0,6.243c-0.004,3.063-4.522,3.748-5.324,1.475
		c-0.605-1.717,1.536-3.542,3.589-3.136v-7.908l10.452-2.175C17.572,35.218,17.574,44.814,17.572,45.871z"/>
</g>
</svg>
